<?xml version="1.0" standalone="no"?>
<!DOCTYPE svg PUBLIC "-//W3C//DTD SVG 20010904//EN"
 "http://www.w3.org/TR/2001/REC-SVG-20010904/DTD/svg10.dtd">
<svg version="1.0" xmlns="http://www.w3.org/2000/svg"
 width="268.000000pt" height="248.000000pt" viewBox="0 0 268.000000 248.000000"
 preserveAspectRatio="xMidYMid meet">
<metadata>
Created by potrace 1.16, written by Peter Selinger 2001-2019
</metadata>
<g transform="translate(0.000000,248.000000) scale(0.100000,-0.100000)"
fill="#000000" stroke="none">
<path d="M0 1240 l0 -1240 1340 0 1340 0 0 1240 0 1240 -1340 0 -1340 0 0
-1240z m1310 993 c69 -31 144 -92 180 -145 l33 -47 41 33 c81 66 166 91 287
84 83 -4 173 -39 223 -86 59 -56 106 -154 106 -224 0 -35 2 -37 43 -43 87 -15
149 -69 174 -154 38 -131 -43 -264 -207 -338 -46 -21 -65 -24 -112 -19 l-57 6
-11 -40 c-6 -21 -35 -132 -65 -247 l-55 -208 26 -23 c15 -13 30 -40 35 -60 21
-89 -25 -247 -92 -317 -22 -23 -39 -46 -39 -52 0 -6 -12 -18 -26 -28 -24 -15
-63 -16 -463 -12 -342 4 -453 8 -515 21 -44 8 -83 19 -87 23 -40 41 -93 225
-87 304 3 37 8 46 33 59 17 8 31 15 32 16 6 1 -84 494 -92 502 -2 2 -20 -1
-39 -8 -32 -10 -42 -9 -92 14 -30 14 -84 51 -120 82 -77 68 -118 146 -136 257
-10 66 -9 84 7 142 20 75 79 170 128 207 106 81 269 117 382 83 16 -5 24 1 37
27 40 84 135 162 243 201 69 24 221 19 285 -10z"/>
<path d="M1014 2106 c-62 -28 -127 -85 -144 -125 -10 -26 -9 -33 19 -71 52
-72 66 -216 24 -251 -13 -11 -18 -10 -34 10 -11 13 -19 29 -19 37 0 37 -50
123 -93 158 -43 36 -50 38 -115 38 -117 0 -202 -37 -257 -112 -75 -101 -65
-258 22 -360 52 -61 131 -120 159 -120 24 0 24 2 19 53 -4 28 -8 58 -11 65 -5
19 17 61 35 65 40 8 60 -15 85 -97 46 -151 94 -373 119 -551 l12 -90 45 -3
c25 -2 63 -1 85 3 l41 6 -8 87 c-5 48 -20 131 -35 184 -26 98 -26 128 1 128
44 0 146 -257 146 -369 l0 -31 66 0 65 0 -6 48 c-4 26 -24 139 -46 250 -21
112 -39 210 -39 218 0 17 34 18 48 2 30 -38 122 -393 122 -475 0 -17 4 -34 8
-37 4 -2 36 -2 70 1 l62 6 0 61 c0 68 33 297 49 338 11 30 41 50 57 40 23 -15
23 -51 -1 -215 -35 -241 -42 -217 63 -217 134 0 123 -9 167 153 21 78 57 200
81 272 24 71 42 130 41 131 -1 1 -17 9 -34 18 -26 13 -33 23 -33 47 0 35 21
46 57 30 14 -7 60 -16 102 -21 61 -8 85 -7 122 5 95 32 169 126 155 199 -8 42
-56 76 -107 76 -28 -1 -39 -8 -62 -41 -34 -50 -86 -77 -125 -63 -42 15 -42 55
2 109 44 53 56 83 56 141 0 59 -19 103 -62 140 -57 50 -116 68 -202 61 -87 -6
-147 -30 -199 -79 -35 -33 -37 -39 -37 -97 0 -67 -19 -116 -64 -164 -22 -24
-33 -28 -69 -25 -55 4 -58 23 -17 109 48 102 38 167 -41 253 -69 76 -115 96
-215 95 -61 0 -91 -6 -130 -23z"/>
<path d="M1725 668 c-77 -5 -851 -20 -937 -18 -9 0 -20 -9 -23 -21 -8 -25 11
-111 36 -160 l17 -35 494 0 493 1 12 25 c17 36 44 176 37 194 -8 21 -18 22
-129 14z"/>
</g>
</svg>
